<svg xmlns="http://www.w3.org/2000/svg" width="44.5" height="41" viewBox="0 0 44.5 41">
  <path id="Icon_map-general-contractor" data-name="Icon map-general-contractor" d="M32.69,14.772a.49.49,0,0,1-.449-.527V6.328c0-.313-.124-.568-.355-.568H14.053c-.231,0-.354.255-.354.568v7.918a.474.474,0,0,1-.481.483H1.136c-.228,0-.416.342-.416.651v8.8c0,.31.188.8.416.8H20.592c.231,0,.524-.487.524-.8V22.3c0-.313.085-1.17.315-1.17H24.51c.23,0,.314.857.314,1.17v1.877c0,.31.293.8.522.8H44.8c.232,0,.419-.487.419-.8v-8.8c0-.31-.187-.651-.418-.651H32.721Zm-16.123-.044c-.23,0-.086-.17-.086-.482v-4.5c0-.314-.144-.142.086-.142H29.373c.23,0,.086-.172.086.142v4.5c0,.311.144.482-.086.482H16.567Zm8.309,18.85c0,.31-.135.369-.365.369H21.431c-.23,0-.315.137-.315-.173V27.448c0-.31-.293-1.188-.523-1.188H1.136c-.228,0-.416.878-.416,1.188V46.191c0,.315.188.568.416.569H44.8c.228,0,.415-.252.418-.568V27.448c0-.31-.187-1.188-.418-1.188H25.346c-.229,0-.522.878-.522,1.188v6.327l.051-.2Z" transform="translate(-0.72 -5.76)" fill="#909090"/>
</svg>
