<svg xmlns="http://www.w3.org/2000/svg" width="81.5" height="81.5" viewBox="0 0 81.5 81.5">
  <path id="Icon_awesome-user-circle" data-name="Icon awesome-user-circle" d="M40.75.563A40.75,40.75,0,1,0,81.5,41.313,40.743,40.743,0,0,0,40.75.563Zm0,15.774A14.46,14.46,0,1,1,26.29,30.8,14.46,14.46,0,0,1,40.75,16.337Zm0,56.524A31.487,31.487,0,0,1,16.678,61.655a18.32,18.32,0,0,1,16.185-9.826,4.021,4.021,0,0,1,1.167.181,21.755,21.755,0,0,0,6.72,1.134,21.673,21.673,0,0,0,6.72-1.134,4.02,4.02,0,0,1,1.167-.181,18.32,18.32,0,0,1,16.185,9.826A31.487,31.487,0,0,1,40.75,72.861Z" transform="translate(0 -0.563)" fill="#909090"/>
</svg>
